<svg xmlns="http://www.w3.org/2000/svg" data-name="Layer 1" viewBox="0 0 700.8 673.5">
  <path fill="#3f3d56" d="M294.7 140.4h-3.3v-89A51.5 51.5 0 0 0 240 0H51.5A51.5 51.5 0 0 0 0 51.5v488A51.5 51.5 0 0 0 51.5 591H240a51.5 51.5 0 0 0 51.4-51.5V203.8h3.3Z"/>
  <path fill="#fff" d="M242 13.4h-24.6a18.3 18.3 0 0 1-16.9 25.2h-108a18.3 18.3 0 0 1-16.9-25.2h-23a38.4 38.4 0 0 0-38.4 38.4v487.3a38.4 38.4 0 0 0 38.5 38.5H242a38.4 38.4 0 0 0 38.5-38.5V51.8A38.4 38.4 0 0 0 242 13.4Z"/>
  <path fill="#fff" d="M234.8 218H59.9a4.4 4.4 0 0 1-4.4-4.4V110.7a4.4 4.4 0 0 1 4.4-4.4h174.9a4.4 4.4 0 0 1 4.4 4.4v102.9a4.4 4.4 0 0 1-4.4 4.4Z"/>
  <path fill="#6c63ff" d="M176.4 161.2a9.7 9.7 0 0 0-14-.2l-49.2 49.2a7 7 0 0 1-9.8 0l-7.3-7.3a9.7 9.7 0 0 0-13.7 0L68.3 217h158.1v-2Z"/>
  <path fill="#cbcbcb" d="M234.8 219.5H59.9a6 6 0 0 1-5.9-6V110.8a6 6 0 0 1 6-6h174.8a6 6 0 0 1 5.9 6v102.9a6 6 0 0 1-6 5.9ZM59.9 107.8a3 3 0 0 0-2.9 2.9v102.9a3 3 0 0 0 3 2.9h174.8a3 3 0 0 0 2.9-3V110.8a3 3 0 0 0-3-3ZM224 532.9a21.8 21.8 0 1 1 21.8-21.8 21.8 21.8 0 0 1-21.8 21.8Zm0-41.9a20 20 0 1 0 20 20.1 20.1 20.1 0 0 0-20-20Z"/>
  <path fill="#cbcbcb" d="M214.6 518.4a.7.7 0 0 1-.3-1.3l10.4-6-10.4-6a.7.7 0 0 1 .7-1.2l11.4 6.6a.7.7 0 0 1 0 1.2l-11.4 6.6a.7.7 0 0 1-.4.1Zm15.4 2.4a.7.7 0 0 1-.7-.7v-18a.7.7 0 0 1 1.4 0v18a.7.7 0 0 1-.7.7Z"/>
  <path fill="#ccc" d="M102.7 261.8a3.3 3.3 0 1 0 0 6.5H192a3.3 3.3 0 0 0 0-6.5Zm-50.5 45a3.3 3.3 0 1 0 0 6.5h190.3a3.3 3.3 0 0 0 0-6.5Zm0 26a3.3 3.3 0 1 0 0 6.5h190.3a3.3 3.3 0 0 0 0-6.5Zm0 26a3.3 3.3 0 1 0 0 6.5h190.3a3.3 3.3 0 0 0 0-6.5Zm0 26a3.3 3.3 0 1 0 0 6.5h190.3a3.3 3.3 0 0 0 0-6.5Zm0 26a3.3 3.3 0 1 0 0 6.5h190.3a3.3 3.3 0 0 0 0-6.5Zm0 26a3.3 3.3 0 1 0 0 6.5h190.3a3.3 3.3 0 0 0 0-6.5Z" data-name="Path 680"/>
  <path fill="#9f616a" d="M514.3 466a9 9 0 0 0 0-13.9l-6.8-118.7-19.2 4.4 12.7 116a9.1 9.1 0 0 0 13.3 12.2Zm78.1 15.5a9 9 0 0 1-.5-13.9l2.5-118.9 19.4 3.7-8.6 116.3a9.1 9.1 0 0 1-12.8 12.8Zm10.3 176.7h15.1l4.3-35.2h-19.4v35.2z"/>
  <path fill="#2f2e41" d="M598.8 653.3h29.8a19 19 0 0 1 19 18.9v.6h-48.8Z"/>
  <path fill="#9f616a" d="M508.5 658.2h15.1l4.3-58.3h-19.4v58.3z"/>
  <path fill="#2f2e41" d="M504.6 653.3h29.8a19 19 0 0 1 18.9 18.9v.6h-48.7Z"/>
  <circle cx="570.5" cy="263.5" r="24.7" fill="#9f616a"/>
  <path fill="#6c63ff" d="M600.7 314.5s11 1 11.9 6.4 0 22 0 22 7.3 22 0 27.4-26.5 6.4-26.5 6.4Z"/>
  <path fill="#2f2e41" d="m507.4 439-10.1 16.4s3.7 72.3 4.6 74.1a5.5 5.5 0 0 1 .9 3.7v10l2.7 87.9s-7.3 3.6 1.9 6.4 21 3.6 22.8-5.5 2-85.4 1.9-87.8l.9-3.7 14.6-54 33.9 75 20.1 84.2s30.5 3.5 25-8.4S608 536.8 608 536.8s-2.7-9.1-2.7-11-1-2.7-1-4.5-.9-7.3-.9-7.3l-6.4-57.7Z"/>
  <path fill="#6c63ff" d="M545.8 292.1s.5 1.4 41.2 6.5c0 0 22.8 15 23.8 18.6s-17.4 50.4-17.4 50.4l-1.9 35.6s9.2 15.5 4.6 63.2c-14.3.8-72.2-18-86.4-26-2.2-1.3-7.3 4-7 3.1 2.8-7.3 0-6.4 2.8-8.2s7.4-66 7.4-66-5.5-69.4.9-71.3 32-5.9 32-5.9Z"/>
  <path fill="#6c63ff" d="M516.5 299s-11-1-13.7 8.2-25.6 43.9-21 47.6 39.3 16.4 40.2 15.5-5.5-71.4-5.5-71.4Z"/>
  <path fill="#2f2e41" d="M599.3 247.8c-1-4-2.5-7.8-5.5-10.4a17 17 0 0 0-11-4.3 34 34 0 0 0-30.5-1.8 5.6 5.6 0 0 0-2.4-2.4l-1 7.6-3.3-2.6-.2 4.5-3.1-2.7c-.2 5.4 4.2 10 9.2 11.8s10.5 1.5 15.8 1.2c2.7-.1 5.6 0 7.4 1.9 1.9 2 1.5 5.1 1.6 7.9 0 3.9 4 2 6 5.3.7 1.2 1.6 2.4 1.6 3.8a8.9 8.9 0 0 1-1.4 3.5c-1.4 3-4.4 12.5-3 15.6l7.8-4.3s17-16 12-34.6Z"/>
  <path fill="#cbcbcb" d="M699.8 673.5h-307a1 1 0 0 1 0-2h307a1 1 0 0 1 0 2Z"/>
  <path fill="#f1f1f1" d="M441.3 671.9s-15-27.6-51.1-15.7Z"/>
  <path fill="#f1f1f1" d="M442.2 671.2s-18.5-23.5 8.1-52.7Z"/>
</svg>
